<svg width="470" height="630" viewBox="0 0 470 630" fill="none" xmlns="http://www.w3.org/2000/svg">
<path d="M261.19 307.398H14.111C6.40779 307.398 0.163086 313.994 0.163086 322.13V574.661C0.163086 582.797 6.40779 589.393 14.111 589.393H261.19C268.892 589.393 275.137 582.797 275.137 574.661V322.13C275.137 313.994 268.892 307.398 261.19 307.398Z" fill="#F1F2FE"/>
<path d="M0 359.843H275.151" stroke="#EBEEF2"/>
<path d="M38.88 422.648C49.3412 422.648 57.8216 414.169 57.8216 403.708C57.8216 393.246 49.3412 384.766 38.88 384.766C28.4189 384.766 19.9385 393.246 19.9385 403.708C19.9385 414.169 28.4189 422.648 38.88 422.648Z" fill="#BEBFC2"/>
<path d="M253.219 392.742H191.409C189.207 392.742 187.422 394.526 187.422 396.729C187.422 398.932 189.207 400.717 191.409 400.717H253.219C255.421 400.717 257.207 398.932 257.207 396.729C257.207 394.526 255.421 392.742 253.219 392.742Z" fill="#D3D5DE"/>
<path d="M255.213 408.693H217.329C216.228 408.693 215.336 409.584 215.336 410.686C215.336 411.788 216.228 412.68 217.329 412.68H255.213C256.314 412.68 257.206 411.788 257.206 410.686C257.206 409.584 256.314 408.693 255.213 408.693Z" fill="#BEBFC2"/>
<path d="M38.88 491.479C49.3412 491.479 57.8216 482.999 57.8216 472.537C57.8216 462.076 49.3412 453.595 38.88 453.595C28.4189 453.595 19.9385 462.076 19.9385 472.537C19.9385 482.999 28.4189 491.479 38.88 491.479Z" fill="#BEBFC2"/>
<path d="M253.219 461.571H191.409C189.207 461.571 187.422 463.356 187.422 465.559C187.422 467.762 189.207 469.546 191.409 469.546H253.219C255.421 469.546 257.207 467.762 257.207 465.559C257.207 463.356 255.421 461.571 253.219 461.571Z" fill="#D3D5DE"/>
<path d="M255.213 477.522H217.329C216.228 477.522 215.336 478.414 215.336 479.515C215.336 480.616 216.228 481.509 217.329 481.509H255.213C256.314 481.509 257.206 480.616 257.206 479.515C257.206 478.414 256.314 477.522 255.213 477.522Z" fill="#BEBFC2"/>
<path d="M38.88 555.628C49.3412 555.628 57.8216 547.149 57.8216 536.687C57.8216 526.226 49.3412 517.745 38.88 517.745C28.4189 517.745 19.9385 526.226 19.9385 536.687C19.9385 547.149 28.4189 555.628 38.88 555.628Z" fill="#BEBFC2"/>
<path d="M253.219 525.72H191.409C189.207 525.72 187.422 527.506 187.422 529.708C187.422 531.91 189.207 533.696 191.409 533.696H253.219C255.421 533.696 257.207 531.91 257.207 529.708C257.207 527.506 255.421 525.72 253.219 525.72Z" fill="#D3D5DE"/>
<path d="M255.213 541.671H217.329C216.228 541.671 215.336 542.564 215.336 543.665C215.336 544.766 216.228 545.659 217.329 545.659H255.213C256.314 545.659 257.206 544.766 257.206 543.665C257.206 542.564 256.314 541.671 255.213 541.671Z" fill="#BEBFC2"/>
<path d="M432.515 39H11.485C7.3512 39 4 42.3566 4 46.4971V68.9883C4 73.1288 7.3512 76.4854 11.485 76.4854H432.515C436.648 76.4854 440 73.1288 440 68.9883V46.4971C440 42.3566 436.648 39 432.515 39Z" fill="#F1F2FE"/>
<path d="M423.159 48.3713H389.476C387.41 48.3713 385.734 50.0496 385.734 52.1198V61.4913C385.734 63.5615 387.41 65.2398 389.476 65.2398H423.159C425.225 65.2398 426.901 63.5615 426.901 61.4913V52.1198C426.901 50.0496 425.225 48.3713 423.159 48.3713Z" fill="#5C60F5"/>
<path d="M350.179 55.8684H322.11C321.077 55.8684 320.239 56.7075 320.239 57.7426C320.239 58.7778 321.077 59.6169 322.11 59.6169H350.179C351.213 59.6169 352.05 58.7778 352.05 57.7426C352.05 56.7075 351.213 55.8684 350.179 55.8684Z" fill="#BEBFC2"/>
<path d="M301.528 55.8684H273.459C272.426 55.8684 271.588 56.7075 271.588 57.7426C271.588 58.7778 272.426 59.6169 273.459 59.6169H301.528C302.561 59.6169 303.399 58.7778 303.399 57.7426C303.399 56.7075 302.561 55.8684 301.528 55.8684Z" fill="#BEBFC2"/>
<path d="M252.876 55.8684H224.807C223.774 55.8684 222.936 56.7075 222.936 57.7426C222.936 58.7778 223.774 59.6169 224.807 59.6169H252.876C253.909 59.6169 254.747 58.7778 254.747 57.7426C254.747 56.7075 253.909 55.8684 252.876 55.8684Z" fill="#BEBFC2"/>
<path d="M420 160H211C207.134 160 204 163.134 204 167V243.694C204 247.56 207.134 250.694 211 250.694H420C423.866 250.694 427 247.56 427 243.694V167C427 163.134 423.866 160 420 160Z" fill="#F0F3FF"/>
<path d="M276.956 177.072H227.339C225.13 177.072 223.339 178.863 223.339 181.072V230.689C223.339 232.898 225.13 234.689 227.339 234.689H276.956C279.165 234.689 280.956 232.898 280.956 230.689V181.072C280.956 178.863 279.165 177.072 276.956 177.072Z" fill="#9AAEFF"/>
<path d="M396.591 188.808H303.762C301.7 188.808 300.028 190.48 300.028 192.542C300.028 194.605 301.7 196.277 303.762 196.277H396.591C398.653 196.277 400.325 194.605 400.325 192.542C400.325 190.48 398.653 188.808 396.591 188.808Z" fill="#D5DDFF"/>
<path d="M364.581 204.813H302.695C301.222 204.813 300.028 206.007 300.028 207.481C300.028 208.954 301.222 210.148 302.695 210.148H364.581C366.054 210.148 367.248 208.954 367.248 207.481C367.248 206.007 366.054 204.813 364.581 204.813Z" fill="#D4DDFF"/>
<path d="M322.968 220.818H301.628C300.745 220.818 300.028 221.535 300.028 222.419C300.028 223.302 300.745 224.019 301.628 224.019H322.968C323.852 224.019 324.569 223.302 324.569 222.419C324.569 221.535 323.852 220.818 322.968 220.818Z" fill="#D4DDFF"/>
<path d="M357.112 220.818H335.772C334.889 220.818 334.172 221.535 334.172 222.419C334.172 223.302 334.889 224.019 335.772 224.019H357.112C357.996 224.019 358.713 223.302 358.713 222.419C358.713 221.535 357.996 220.818 357.112 220.818Z" fill="#D4DDFF"/>
<path d="M391.256 220.818H369.916C369.032 220.818 368.316 221.535 368.316 222.419C368.316 223.302 369.032 224.019 369.916 224.019H391.256C392.14 224.019 392.857 223.302 392.857 222.419C392.857 221.535 392.14 220.818 391.256 220.818Z" fill="#D4DDFF"/>
<path d="M425 348H343C339.134 348 336 351.134 336 355V472C336 475.866 339.134 479 343 479H425C428.866 479 432 475.866 432 472V355C432 351.134 428.866 348 425 348Z" fill="#F0F3FF"/>
<path d="M411 368.904H356.182C354.525 368.904 353.182 370.247 353.182 371.904V405.382C353.182 407.039 354.525 408.382 356.182 408.382H411C412.657 408.382 414 407.039 414 405.382V371.904C414 370.247 412.657 368.904 411 368.904Z" fill="#A2B4FF"/>
<path d="M403.864 446.794H354.782C353.899 446.794 353.182 446.077 353.182 445.194C353.182 444.31 353.899 443.593 354.782 443.593H403.864C404.748 443.593 405.464 444.31 405.464 445.194C405.464 446.077 404.748 446.794 403.864 446.794Z" fill="#A1B4FF"/>
<path d="M374.5 458H354.5C353.672 458 353 457.328 353 456.5C353 455.672 353.672 455 354.5 455H374.5C375.328 455 376 455.672 376 456.5C376 457.328 375.328 458 374.5 458Z" fill="#A1B4FF"/>
<path d="M387.859 436.124H354.782C353.899 436.124 353.182 435.407 353.182 434.524C353.182 433.64 353.899 432.923 354.782 432.923H387.859C388.743 432.923 389.46 433.64 389.46 434.524C389.46 435.407 388.743 436.124 387.859 436.124Z" fill="#A1B4FF"/>
<path d="M397.462 424.388H354.782C353.899 424.388 353.182 423.671 353.182 422.788C353.182 421.904 353.899 421.187 354.782 421.187H397.462C398.346 421.187 399.062 421.904 399.062 422.788C399.062 423.671 398.346 424.388 397.462 424.388Z" fill="#A1B4FF"/>
<path d="M113 118H20C16.134 118 13 121.134 13 125V242C13 245.866 16.134 249 20 249H113C116.866 249 120 245.866 120 242V125C120 121.134 116.866 118 113 118Z" fill="#F1F2FE"/>
<path d="M83.0257 191.187H33.9442C33.0603 191.187 32.3438 191.904 32.3438 192.787C32.3438 193.671 33.0603 194.388 33.9442 194.388H83.0257C83.9097 194.388 84.6257 193.671 84.6257 192.787C84.6257 191.904 83.9097 191.187 83.0257 191.187Z" fill="#DFDFDF"/>
<path d="M67.0209 201.856H33.9442C33.0603 201.856 32.3438 202.573 32.3438 203.456C32.3438 204.34 33.0603 205.057 33.9442 205.057H67.0209C67.9048 205.057 68.6213 204.34 68.6213 203.456C68.6213 202.573 67.9048 201.856 67.0209 201.856Z" fill="#DFDFDF"/>
<path d="M54.2169 213.593H33.9442C33.0603 213.593 32.3438 214.31 32.3438 215.194C32.3438 216.077 33.0603 216.794 33.9442 216.794H54.2169C55.1008 216.794 55.8175 216.077 55.8175 215.194C55.8175 214.31 55.1008 213.593 54.2169 213.593Z" fill="#DFDFDF"/>
<path d="M75.5 224H33.5C32.6716 224 32 224.672 32 225.5C32 226.328 32.6716 227 33.5 227H75.5C76.3284 227 77 226.328 77 225.5C77 224.672 76.3284 224 75.5 224Z" fill="#DFDFDF"/>
<path d="M59.2193 138.904H35.3438C33.6868 138.904 32.3438 140.247 32.3438 141.904V175.382C32.3438 177.039 33.6868 178.382 35.3438 178.382H59.2193C60.8762 178.382 62.2193 177.039 62.2193 175.382V141.904C62.2193 140.247 60.8762 138.904 59.2193 138.904Z" fill="#D5D5D5"/>
<path d="M98.6992 138.904H74.8232C73.1663 138.904 71.8232 140.247 71.8232 141.904V175.382C71.8232 177.039 73.1663 178.382 74.8232 178.382H98.6992C100.355 178.382 101.699 177.039 101.699 175.382V141.904C101.699 140.247 100.355 138.904 98.6992 138.904Z" fill="#E3E3E3"/>
<path d="M28.1875 50.8058C23.3958 54.6268 22.9167 59.8805 26.75 66.5671M36.8125 62.2686C41.6042 58.4477 42.0833 53.2968 38.25 46.6101M32.5 45.0745C29.4501 45.0745 26.5249 46.2821 24.3683 48.4318C22.2116 50.5815 21 53.4971 21 56.5372C21 59.5773 22.2116 62.4929 24.3683 64.6426C26.5249 66.7923 29.4501 68 32.5 68C35.55 68 38.4751 66.7923 40.6317 64.6426C42.7884 62.4929 44 59.5773 44 56.5372C44 53.4971 42.7884 50.5815 40.6317 48.4318C38.4751 46.2821 35.55 45.0745 32.5 45.0745ZM32.5 49.373C30.5938 49.373 28.7656 50.1278 27.4177 51.4714C26.0698 52.8149 25.3125 54.6371 25.3125 56.5372C25.3125 58.4373 26.0698 60.2595 27.4177 61.6031C28.7656 62.9466 30.5938 63.7014 32.5 63.7014C34.4063 63.7014 36.2344 62.9466 37.5823 61.6031C38.9303 60.2595 39.6875 58.4373 39.6875 56.5372C39.6875 54.6371 38.9303 52.8149 37.5823 51.4714C36.2344 50.1278 34.4063 49.373 32.5 49.373Z" stroke="#3056D3" stroke-linejoin="round"/>
<path d="M38.2724 52.2441C34.506 47.4153 29.2533 46.8733 22.5143 50.6181M26.6951 60.7136C30.4615 65.5424 35.6113 66.0831 42.3503 62.3383M43.9568 56.6179C43.9937 53.5737 42.8203 50.6396 40.6947 48.461C38.5692 46.2824 35.6656 45.0377 32.6227 45.0008C29.5799 44.964 26.647 46.1379 24.4693 48.2644C22.2916 50.3908 21.0475 53.2956 21.0106 56.3397C20.9737 59.3839 22.1471 62.318 24.2727 64.4966C26.3983 66.6753 29.3018 67.9199 32.3447 67.9568C35.3875 67.9937 38.3204 66.8198 40.4981 64.6933C42.6758 62.5669 43.9199 59.6621 43.9568 56.6179ZM39.6544 56.5658C39.6774 54.6632 38.9441 52.8293 37.6156 51.4677C36.2872 50.1061 34.4724 49.3282 32.5706 49.3051C30.6688 49.282 28.8358 50.0158 27.4747 51.3448C26.1136 52.6738 25.3361 54.4893 25.313 56.3919C25.29 58.2945 26.0234 60.1284 27.3519 61.49C28.6803 62.8516 30.4951 63.6295 32.3968 63.6526C34.2986 63.6756 36.1317 62.9419 37.4927 61.6129C38.8538 60.2839 39.6314 58.4683 39.6544 56.5658Z" stroke="#3056D3" stroke-linejoin="round"/>
<path d="M33.7458 49.43C27.6861 48.5552 23.5212 51.8028 21.2511 59.173M31.2549 63.5604C37.3146 64.4352 41.4043 61.258 43.6744 53.8879M40.8742 48.6478C38.7938 46.426 35.9165 45.1219 32.875 45.0225C29.8336 44.9231 26.8772 46.0365 24.6563 48.1178C22.4354 50.199 21.1319 53.0776 21.0325 56.1204C20.9331 59.1631 22.0461 62.1208 24.1264 64.3426C26.2068 66.5644 29.0842 67.8685 32.1257 67.9679C35.1671 68.0673 38.1235 66.9539 40.3444 64.8726C42.5653 62.7914 43.8688 59.9128 43.9682 56.87C44.0675 53.8273 42.9546 50.8696 40.8742 48.6478ZM37.734 51.5905C36.4338 50.2019 34.6354 49.3869 32.7345 49.3248C30.8336 49.2626 28.9859 49.9585 27.5978 51.2593C26.2097 52.56 25.395 54.3592 25.3329 56.2609C25.2708 58.1626 25.9664 60.0112 27.2666 61.3998C28.5669 62.7884 30.3653 63.6035 32.2662 63.6656C34.1671 63.7278 36.0148 63.0319 37.4029 61.7311C38.7909 60.4303 39.6056 58.6312 39.6678 56.7294C39.7298 54.8277 39.0342 52.9792 37.734 51.5905Z" stroke="#3056D3" stroke-linejoin="round"/>
</svg>
