<svg width="48" height="48" viewBox="0 0 48 48" fill="none" xmlns="http://www.w3.org/2000/svg">
<path d="M17.6181 15.5844C10.5271 21.2363 9.81805 29.0077 15.4908 38.8987M30.3817 32.5402C37.4726 26.8883 38.1817 19.269 32.509 9.37805M23.9999 7.10645C19.4864 7.10645 15.1577 8.89286 11.9662 12.0727C8.77467 15.2525 6.98169 19.5653 6.98169 24.0623C6.98169 28.5593 8.77467 32.872 11.9662 36.0519C15.1577 39.2317 19.4864 41.0181 23.9999 41.0181C28.5134 41.0181 32.842 39.2317 36.0335 36.0519C39.2251 32.872 41.0181 28.5593 41.0181 24.0623C41.0181 19.5653 39.2251 15.2525 36.0335 12.0727C32.842 8.89286 28.5134 7.10645 23.9999 7.10645ZM23.9999 13.4649C21.1789 13.4649 18.4735 14.5814 16.4788 16.5688C14.4841 18.5562 13.3635 21.2517 13.3635 24.0623C13.3635 26.8729 14.4841 29.5684 16.4788 31.5558C18.4735 33.5432 21.1789 34.6597 23.9999 34.6597C26.8208 34.6597 29.5262 33.5432 31.5209 31.5558C33.5156 29.5684 34.6362 26.8729 34.6362 24.0623C34.6362 21.2517 33.5156 18.5562 31.5209 16.5688C29.5262 14.5814 26.8208 13.4649 23.9999 13.4649Z" stroke="#3056D3" stroke-width="2" stroke-linejoin="round"/>
<path d="M32.5423 17.7117C26.9685 10.5688 19.1954 9.76713 9.22273 15.3066M15.4096 30.2398C20.9833 37.3827 28.6042 38.1826 38.5768 32.6431M40.9543 24.1815C41.0089 19.6786 39.2724 15.3384 36.1269 12.1157C32.9814 8.89308 28.6846 7.05196 24.1817 6.9974C19.6787 6.94284 15.3385 8.6793 12.1159 11.8248C8.89324 14.9703 7.05213 19.2671 6.99757 23.77C6.94301 28.273 8.67947 32.6132 11.8249 35.8358C14.9704 39.0585 19.2673 40.8996 23.7702 40.9541C28.2732 41.0087 32.6133 39.2722 35.836 36.1268C39.0586 32.9813 40.8997 28.6844 40.9543 24.1815ZM34.5874 24.1044C34.6215 21.29 33.5362 18.5774 31.5703 16.5632C29.6044 14.5491 26.9189 13.3984 24.1045 13.3643C21.2902 13.3302 18.5776 14.4155 16.5634 16.3814C14.5493 18.3473 13.3986 21.0329 13.3645 23.8472C13.3304 26.6615 14.4156 29.3742 16.3816 31.3883C18.3475 33.4025 21.033 34.5532 23.8474 34.5873C26.6617 34.6214 29.3743 33.5361 31.3885 31.5701C33.4026 29.6042 34.5533 26.9187 34.5874 24.1044Z" stroke="#3056D3" stroke-width="2" stroke-linejoin="round"/>
<path d="M25.843 13.549C16.8757 12.255 10.7123 17.059 7.35297 27.961M22.157 34.451C31.1243 35.745 37.1765 31.0452 40.5358 20.1432M36.392 12.392C33.3134 9.10546 29.0553 7.17648 24.5544 7.02944C20.0535 6.8824 15.6786 8.52934 12.392 11.608C9.10545 14.6866 7.17646 18.9447 7.02942 23.4456C6.88238 27.9465 8.52933 32.3214 11.6079 35.608C14.6866 38.8945 18.9447 40.8235 23.4456 40.9706C27.9464 41.1176 32.3214 39.4707 35.608 36.392C38.8945 33.3134 40.8235 29.0553 40.9706 24.5544C41.1176 20.0535 39.4706 15.6786 36.392 12.392ZM31.745 16.745C29.8209 14.6909 27.1595 13.4853 24.3465 13.3934C21.5335 13.3015 18.7991 14.3308 16.745 16.255C14.6909 18.1791 13.4853 20.8404 13.3934 23.6535C13.3015 26.4665 14.3308 29.2009 16.255 31.255C18.1791 33.3091 20.8404 34.5147 23.6535 34.6066C26.4665 34.6985 29.2009 33.6692 31.255 31.745C33.3091 29.8209 34.5147 27.1596 34.6066 24.3465C34.6985 21.5335 33.6691 18.7991 31.745 16.745Z" stroke="#3056D3" stroke-width="2" stroke-linejoin="round"/>
</svg>
