<svg width="1049" height="438" viewBox="0 0 1049 438" fill="none" xmlns="http://www.w3.org/2000/svg">
<mask id="mask0_153_1226" style="mask-type:luminance" maskUnits="userSpaceOnUse" x="0" y="0" width="1049" height="438">
<path d="M1049 0H0V438H1049V0Z" fill="white"/>
</mask>
<g mask="url(#mask0_153_1226)">
<path d="M385.227 152.909H402.273L431.909 225.273H433L462.636 152.909H479.682V246H466.318V178.636H465.455L438 245.864H426.909L399.455 178.591H398.591V246H385.227V152.909ZM492.92 152.909H508.875L533.193 195.227H534.193L558.511 152.909H574.466L540.693 209.455V246H526.693V209.455L492.92 152.909Z" fill="#090E34"/>
<path d="M665.046 183.182H650.865C650.319 180.152 649.304 177.485 647.819 175.182C646.334 172.879 644.516 170.924 642.365 169.318C640.213 167.712 637.804 166.5 635.137 165.682C632.501 164.864 629.698 164.455 626.728 164.455C621.365 164.455 616.562 165.803 612.319 168.5C608.107 171.197 604.774 175.152 602.319 180.364C599.895 185.576 598.683 191.939 598.683 199.455C598.683 207.03 599.895 213.424 602.319 218.636C604.774 223.848 608.122 227.788 612.365 230.455C616.607 233.121 621.38 234.455 626.683 234.455C629.622 234.455 632.41 234.061 635.046 233.273C637.713 232.455 640.122 231.258 642.274 229.682C644.425 228.106 646.243 226.182 647.728 223.909C649.243 221.606 650.289 218.97 650.865 216L665.046 216.045C664.289 220.621 662.819 224.833 660.637 228.682C658.486 232.5 655.713 235.803 652.319 238.591C648.956 241.348 645.107 243.485 640.774 245C636.44 246.515 631.713 247.273 626.592 247.273C618.531 247.273 611.349 245.364 605.046 241.545C598.743 237.697 593.774 232.197 590.137 225.045C586.531 217.894 584.728 209.364 584.728 199.455C584.728 189.515 586.546 180.985 590.183 173.864C593.819 166.712 598.789 161.227 605.092 157.409C611.395 153.561 618.562 151.636 626.592 151.636C631.531 151.636 636.137 152.348 640.41 153.773C644.713 155.167 648.577 157.227 652.001 159.955C655.425 162.652 658.259 165.955 660.501 169.864C662.743 173.742 664.259 178.182 665.046 183.182ZM681.853 246V152.909H695.899V193.364H742.308V152.909H756.399V246H742.308V205.409H695.899V246H681.853ZM776.853 246V152.909H835.217V165H790.899V193.364H832.171V205.409H790.899V233.909H835.762V246H776.853ZM931.296 183.182H917.115C916.569 180.152 915.554 177.485 914.069 175.182C912.584 172.879 910.766 170.924 908.615 169.318C906.463 167.712 904.054 166.5 901.387 165.682C898.751 164.864 895.948 164.455 892.978 164.455C887.615 164.455 882.812 165.803 878.569 168.5C874.357 171.197 871.024 175.152 868.569 180.364C866.145 185.576 864.933 191.939 864.933 199.455C864.933 207.03 866.145 213.424 868.569 218.636C871.024 223.848 874.372 227.788 878.615 230.455C882.857 233.121 887.63 234.455 892.933 234.455C895.872 234.455 898.66 234.061 901.296 233.273C903.963 232.455 906.372 231.258 908.524 229.682C910.675 228.106 912.493 226.182 913.978 223.909C915.493 221.606 916.539 218.97 917.115 216L931.296 216.045C930.539 220.621 929.069 224.833 926.887 228.682C924.736 232.5 921.963 235.803 918.569 238.591C915.206 241.348 911.357 243.485 907.024 245C902.69 246.515 897.963 247.273 892.842 247.273C884.781 247.273 877.599 245.364 871.296 241.545C864.993 237.697 860.024 232.197 856.387 225.045C852.781 217.894 850.978 209.364 850.978 199.455C850.978 189.515 852.796 180.985 856.433 173.864C860.069 166.712 865.039 161.227 871.342 157.409C877.645 153.561 884.812 151.636 892.842 151.636C897.781 151.636 902.387 152.348 906.66 153.773C910.963 155.167 914.827 157.227 918.251 159.955C921.675 162.652 924.509 165.955 926.751 169.864C928.993 173.742 930.509 178.182 931.296 183.182ZM948.103 246V152.909H962.149V197.364H963.285L1002.33 152.909H1020.01L982.467 194.818L1020.15 246H1003.24L973.149 204.409L962.149 217.045V246H948.103Z" fill="#3056D3"/>
<path d="M629.319 272.854C629.152 271.29 628.445 270.072 627.2 269.201C625.967 268.33 624.363 267.893 622.386 267.893C620.998 267.893 619.807 268.103 618.812 268.52C617.819 268.938 617.059 269.505 616.532 270.221C616.005 270.938 615.735 271.756 615.724 272.675C615.724 273.438 615.897 274.101 616.244 274.663C616.604 275.223 617.088 275.7 617.699 276.095C618.309 276.476 618.986 276.799 619.728 277.062C620.471 277.324 621.218 277.545 621.973 277.725L625.422 278.585C626.811 278.907 628.146 279.342 629.427 279.891C630.72 280.44 631.876 281.132 632.893 281.969C633.923 282.803 634.738 283.812 635.336 284.994C635.935 286.176 636.234 287.562 636.234 289.149C636.234 291.297 635.683 293.19 634.582 294.826C633.48 296.449 631.887 297.72 629.804 298.64C627.733 299.546 625.224 300 622.279 300C619.417 300 616.932 299.559 614.825 298.675C612.73 297.793 611.089 296.502 609.904 294.808C608.731 293.113 608.097 291.047 608 288.612H614.557C614.652 289.89 615.047 290.951 615.741 291.799C616.436 292.646 617.34 293.279 618.454 293.697C619.579 294.116 620.836 294.324 622.224 294.324C623.674 294.324 624.943 294.109 626.033 293.68C627.134 293.237 627.996 292.629 628.618 291.853C629.242 291.065 629.559 290.146 629.571 289.095C629.559 288.14 629.277 287.352 628.726 286.731C628.175 286.099 627.403 285.574 626.41 285.155C625.428 284.725 624.278 284.344 622.962 284.009L618.777 282.935C615.748 282.159 613.353 280.984 611.592 279.408C609.845 277.82 608.971 275.713 608.971 273.087C608.971 270.925 609.557 269.033 610.731 267.41C611.915 265.786 613.527 264.527 615.561 263.632C617.597 262.724 619.902 262.27 622.476 262.27C625.086 262.27 627.373 262.724 629.337 263.632C631.313 264.527 632.864 265.775 633.989 267.375C635.114 268.962 635.694 270.788 635.731 272.854H629.319ZM653.92 299.983C651.225 299.983 648.892 299.392 646.915 298.21C644.94 297.028 643.407 295.375 642.318 293.25C641.241 291.125 640.701 288.642 640.701 285.801C640.701 282.959 641.241 280.47 642.318 278.334C643.407 276.196 644.94 274.536 646.915 273.356C648.892 272.173 651.225 271.582 653.92 271.582C656.615 271.582 658.949 272.173 660.925 273.356C662.9 274.536 664.427 276.196 665.505 278.334C666.593 280.47 667.138 282.959 667.138 285.801C667.138 288.642 666.593 291.125 665.505 293.25C664.427 295.375 662.9 297.028 660.925 298.21C658.949 299.392 656.615 299.983 653.92 299.983ZM653.956 294.789C655.416 294.789 656.638 294.39 657.62 293.59C658.601 292.778 659.332 291.691 659.811 290.331C660.302 288.969 660.547 287.454 660.547 285.783C660.547 284.099 660.302 282.577 659.811 281.216C659.332 279.844 658.601 278.751 657.62 277.939C656.638 277.128 655.416 276.722 653.956 276.722C652.459 276.722 651.214 277.128 650.221 277.939C649.239 278.751 648.503 279.844 648.011 281.216C647.532 282.577 647.293 284.099 647.293 285.783C647.293 287.454 647.532 288.969 648.011 290.331C648.503 291.691 649.239 292.778 650.221 293.59C651.214 294.39 652.459 294.789 653.956 294.789ZM679.159 262.772V299.445H672.657V262.772H679.159ZM703.426 287.877V271.941H709.928V299.445H703.625V294.557H703.338C702.714 296.096 701.691 297.357 700.265 298.335C698.854 299.314 697.112 299.804 695.039 299.804C693.231 299.804 691.634 299.403 690.244 298.603C688.868 297.792 687.79 296.616 687.012 295.077C686.234 293.525 685.844 291.65 685.844 289.453V271.941H692.346V288.451C692.346 290.194 692.825 291.579 693.782 292.604C694.74 293.631 695.997 294.145 697.554 294.145C698.512 294.145 699.439 293.913 700.339 293.446C701.236 292.981 701.972 292.289 702.547 291.369C703.134 290.439 703.426 289.275 703.426 287.877ZM730.39 271.941V276.954H714.531V271.941H730.39ZM718.446 265.351H724.948V291.173C724.948 292.044 725.08 292.712 725.343 293.179C725.618 293.631 725.978 293.942 726.42 294.109C726.864 294.277 727.354 294.359 727.894 294.359C728.3 294.359 728.672 294.33 729.007 294.27C729.354 294.211 729.618 294.156 729.797 294.109L730.893 299.176C730.545 299.295 730.049 299.427 729.401 299.57C728.768 299.714 727.989 299.797 727.066 299.821C725.438 299.87 723.971 299.625 722.666 299.087C721.361 298.538 720.326 297.69 719.56 296.544C718.806 295.399 718.435 293.966 718.446 292.247V265.351ZM735.827 299.445V271.941H742.329V299.445H735.827ZM739.096 268.037C738.067 268.037 737.18 267.697 736.438 267.016C735.695 266.324 735.324 265.493 735.324 264.527C735.324 263.548 735.695 262.719 736.438 262.038C737.18 261.346 738.067 261 739.096 261C740.137 261 741.024 261.346 741.754 262.038C742.496 262.719 742.867 263.548 742.867 264.527C742.867 265.493 742.496 266.324 741.754 267.016C741.024 267.697 740.137 268.037 739.096 268.037ZM761.048 299.983C758.353 299.983 756.018 299.392 754.043 298.21C752.068 297.028 750.535 295.375 749.445 293.25C748.367 291.125 747.829 288.642 747.829 285.801C747.829 282.959 748.367 280.47 749.445 278.334C750.535 276.196 752.068 274.536 754.043 273.356C756.018 272.173 758.353 271.582 761.048 271.582C763.742 271.582 766.077 272.173 768.052 273.356C770.028 274.536 771.555 276.196 772.632 278.334C773.721 280.47 774.266 282.959 774.266 285.801C774.266 288.642 773.721 291.125 772.632 293.25C771.555 295.375 770.028 297.028 768.052 298.21C766.077 299.392 763.742 299.983 761.048 299.983ZM761.084 294.789C762.544 294.789 763.766 294.39 764.748 293.59C765.729 292.778 766.459 291.691 766.938 290.331C767.43 288.969 767.675 287.454 767.675 285.783C767.675 284.099 767.43 282.577 766.938 281.216C766.459 279.844 765.729 278.751 764.748 277.939C763.766 277.128 762.544 276.722 761.084 276.722C759.587 276.722 758.342 277.128 757.347 277.939C756.367 278.751 755.629 279.844 755.139 281.216C754.66 282.577 754.421 284.099 754.421 285.783C754.421 287.454 754.66 288.969 755.139 290.331C755.629 291.691 756.367 292.778 757.347 293.59C758.342 294.39 759.587 294.789 761.084 294.789ZM786.286 283.329V299.445H779.785V271.941H785.998V276.614H786.321C786.956 275.074 787.968 273.85 789.357 272.944C790.758 272.036 792.489 271.582 794.548 271.582C796.452 271.582 798.11 271.989 799.523 272.8C800.948 273.612 802.049 274.787 802.827 276.328C803.617 277.867 804.006 279.736 803.995 281.932V299.445H797.493V282.935C797.493 281.097 797.014 279.659 796.056 278.62C795.11 277.582 793.8 277.062 792.124 277.062C790.986 277.062 789.974 277.313 789.088 277.814C788.214 278.303 787.525 279.013 787.022 279.945C786.532 280.876 786.286 282.004 786.286 283.329ZM832.407 279.211L826.481 279.855C826.313 279.258 826.021 278.698 825.601 278.171C825.193 277.647 824.642 277.223 823.948 276.901C823.254 276.579 822.404 276.418 821.399 276.418C820.046 276.418 818.908 276.709 817.986 277.294C817.076 277.88 816.626 278.638 816.639 279.569C816.626 280.369 816.92 281.019 817.518 281.52C818.129 282.022 819.135 282.434 820.536 282.756L825.242 283.759C827.851 284.32 829.791 285.21 831.061 286.427C832.343 287.644 832.989 289.238 833 291.208C832.989 292.939 832.48 294.467 831.474 295.792C830.48 297.106 829.097 298.131 827.324 298.872C825.553 299.612 823.517 299.983 821.219 299.983C817.841 299.983 815.124 299.279 813.065 297.87C811.005 296.449 809.777 294.473 809.383 291.942L815.723 291.334C816.011 292.575 816.62 293.512 817.555 294.145C818.489 294.778 819.704 295.093 821.2 295.093C822.746 295.093 823.985 294.778 824.918 294.145C825.865 293.512 826.337 292.73 826.337 291.799C826.337 291.012 826.032 290.36 825.421 289.848C824.822 289.334 823.888 288.94 822.619 288.665L817.914 287.681C815.268 287.132 813.311 286.206 812.041 284.905C810.772 283.592 810.143 281.932 810.155 279.926C810.143 278.232 810.603 276.764 811.538 275.521C812.485 274.269 813.795 273.301 815.471 272.62C817.16 271.928 819.106 271.582 821.309 271.582C824.541 271.582 827.085 272.269 828.941 273.641C830.81 275.014 831.965 276.871 832.407 279.211Z" fill="#090E34"/>
<path d="M122.208 142.208C54.1058 193.782 47.2956 264.696 101.777 354.951M244.792 296.93C312.894 245.356 319.704 175.83 265.223 85.5753M183.5 64.8469C140.152 64.8469 98.5787 81.148 67.9268 110.164C37.2748 139.18 20.0547 178.534 20.0547 219.569C20.0547 260.604 37.2748 299.958 67.9268 328.974C98.5787 357.99 140.152 374.291 183.5 374.291C226.848 374.291 268.421 357.99 299.073 328.974C329.725 299.958 346.945 260.604 346.945 219.569C346.945 178.534 329.725 139.18 299.073 110.164C268.421 81.148 226.848 64.8469 183.5 64.8469ZM183.5 122.868C156.407 122.868 130.424 133.056 111.267 151.191C92.1093 169.326 81.3467 193.922 81.3467 219.569C81.3467 245.216 92.1093 269.812 111.267 287.947C130.424 306.082 156.407 316.27 183.5 316.27C210.593 316.27 236.576 306.082 255.733 287.947C274.891 269.812 285.653 245.216 285.653 219.569C285.653 193.922 274.891 169.326 255.733 151.191C236.576 133.056 210.593 122.868 183.5 122.868Z" stroke="#3056D3" stroke-width="10" stroke-linejoin="round"/>
<path d="M265.542 161.621C212.011 96.4422 137.356 89.1265 41.5771 139.674M100.997 275.94C154.528 341.119 227.72 348.417 323.499 297.87M346.332 220.658C346.856 179.568 330.179 139.964 299.969 110.557C269.76 81.1508 228.492 64.3506 185.245 63.8527C141.998 63.3549 100.314 79.2001 69.3635 107.903C38.4127 136.605 20.7303 175.814 20.2063 216.903C19.6823 257.992 36.3595 297.597 66.5693 327.003C96.779 356.41 138.046 373.21 181.293 373.708C224.54 374.206 266.224 358.361 297.175 329.658C328.126 300.956 345.808 261.747 346.332 220.658ZM285.184 219.954C285.511 194.273 275.088 169.52 256.207 151.141C237.326 132.762 211.533 122.262 184.504 121.951C157.475 121.639 131.422 131.543 112.078 149.482C92.7339 167.421 81.6825 191.926 81.355 217.607C81.0274 243.288 91.4507 268.041 110.332 286.42C129.213 304.799 155.005 315.299 182.034 315.61C209.064 315.921 235.116 306.018 254.46 288.079C273.805 270.14 284.856 245.634 285.184 219.954Z" stroke="#3056D3" stroke-width="10" stroke-linejoin="round"/>
<path d="M201.201 123.635C115.077 111.827 55.8833 155.663 23.6194 255.144M165.799 314.365C251.923 326.173 310.049 283.287 342.313 183.807M302.515 113.077C272.947 83.0873 232.052 65.4853 188.825 64.1435C145.598 62.8018 103.58 77.8301 72.0152 105.923C40.4504 134.015 21.9242 172.87 20.5119 213.941C19.0997 255.011 34.9173 294.933 64.4849 324.923C94.0525 354.913 134.948 372.515 178.175 373.856C221.402 375.198 263.42 360.17 294.985 332.077C326.55 303.985 345.076 265.13 346.488 224.059C347.9 182.989 332.083 143.067 302.515 113.077ZM257.884 152.798C239.405 134.055 213.845 123.053 186.828 122.215C159.811 121.376 133.55 130.769 113.822 148.327C94.094 165.884 82.5151 190.169 81.6325 215.838C80.7498 241.507 90.6358 266.458 109.115 285.202C127.595 303.945 153.155 314.947 180.172 315.785C207.189 316.624 233.45 307.231 253.178 289.673C272.906 272.116 284.485 247.831 285.368 222.162C286.25 196.493 276.364 171.542 257.884 152.798Z" stroke="#3056D3" stroke-width="10" stroke-linejoin="round"/>
</g>
</svg>
